#!OML:ASF E:\Steps\Project 1\Capture day 1\Session 2\Subject.ASF
:FULLY-SPECIFIED
:DEGREES
110
root -1.1518 16.2892 21.2416 -159.288 4.21896 184.739
lowerback -20.7229 -3.89806 -9.41111
upperback 1.1767 -2.7156 0.291459
thorax 13.5569 -1.87769 4.83849
lowerneck -0.974577 -8.29164 -0.202854
upperneck 15.3763 -11.1192 3.98501
head 5.02859 -4.95792 0.757852
rclavicle -1.07344e-014 4.45278e-014
rhumerus -40.8455 -13.7143 -81.0089
rradius 41.1847
rwrist -8.30546
rhand -9.21737 -51.7441
rfingers 7.12502
rthumb 16.7372 -81.0426
lclavicle -1.07344e-014 4.45278e-014
lhumerus -31.4492 3.42303 75.9307
lradius 25.9562
lwrist -1.19029
lhand -22.1524 -13.1032
lfingers 7.12502
lthumb 4.26159 16.8339
rfemur -63.6072 -3.32678 21.7252
rtibia 87.5125
rfoot -32.5623 -10.5719
rtoes -31.3668
lfemur -24.3512 -10.1941 -15.9859
ltibia 21.8876
lfoot -16.8146 9.67215
ltoes -38.0832
111
root -1.13638 16.2896 21.2187 -159.554 4.06282 184.845
lowerback -20.6702 -3.92766 -9.51959
upperback 1.3146 -2.73103 0.26484
thorax 13.6972 -1.90467 4.86183
lowerneck -0.938564 -8.22899 -0.559123
upperneck 15.1113 -11.1104 4.71906
head 5.00195 -4.93977 1.04037
rclavicle 1.47101e-014 -5.40694e-014
rhumerus -40.7403 -13.9967 -80.9234
rradius 41.0272
rwrist -8.31342
rhand -9.1694 -51.5086
rfingers 7.12502
rthumb 16.7834 -80.8032
lclavicle 1.47101e-014 -5.40694e-014
lhumerus -31.5013 3.07269 75.9171
lradius 26.3039
lwrist -0.891911
lhand -22.154 -13.2215
lfingers 7.12502
lthumb 4.26005 16.7157
rfemur -64.3998 -3.6921 21.1651
rtibia 88.265
rfoot -32.3416 -10.9561
rtoes -31.6045
lfemur -24.1069 -10.2883 -15.8739
ltibia 22.1884
lfoot -16.9533 9.70453
ltoes -39.0178
112
root -1.12022 16.2887 21.1949 -159.802 3.93931 185.1
lowerback -20.6405 -3.90125 -9.49321
upperback 1.47089 -2.70889 0.262812
thorax 13.8594 -1.90876 4.84811
lowerneck -1.15627 -8.15557 -0.863502
upperneck 15.1597 -11.0773 5.281
head 5.10087 -4.89917 1.24821
rclavicle 1.15295e-014 4.29375e-014
rhumerus -40.6078 -14.2953 -80.879
rradius 40.8997
rwrist -8.65364
rhand -9.55846 -51.9806
rfingers 7.12502
rthumb 16.4088 -81.3066
lclavicle 1.15295e-014 4.29375e-014
lhumerus -31.4488 2.82168 75.8254
lradius 26.516
lwrist -0.77733
lhand -22.1332 -13.2002
lfingers 7.12502
lthumb 4.28011 16.7366
rfemur -65.1575 -3.93536 20.6736
rtibia 89.0122
rfoot -32.3716 -10.8932
rtoes -29.9336
lfemur -23.8137 -10.342 -15.5907
ltibia 22.3545
lfoot -17.0199 9.76323
ltoes -39.8006
113
root -1.10449 16.2886 21.1696 -160.157 3.86102 185.329
lowerback -20.4187 -3.84223 -9.50937
upperback 1.6006 -2.65413 0.251733
thorax 13.8749 -1.89446 4.86541
lowerneck -1.2995 -8.21004 -0.786186
upperneck 15.2726 -11.1772 5.40431
head 5.16632 -4.92682 1.26001
rclavicle -7.95139e-016 -1.74931e-014
rhumerus -40.5907 -14.4698 -80.8334
rradius 40.8346
rwrist -9.51099
rhand -10.3978 -52.7569
rfingers 7.12502
rthumb 15.6005 -82.1478
lclavicle -7.95139e-016 -1.74931e-014
lhumerus -31.4268 2.64187 75.7227
lradius 26.6652
lwrist -0.769874
lhand -21.9858 -13.2877
lfingers 7.12502
lthumb 4.42247 16.6462
rfemur -65.7014 -4.20044 20.0554
rtibia 89.5334
rfoot -32.4689 -10.5874
rtoes -27.3904
lfemur -23.4037 -10.4863 -15.3614
ltibia 22.5669
lfoot -17.1752 9.99573
ltoes -40.5295
114
root -1.08859 16.2877 21.1455 -160.457 3.7224 185.539
lowerback -20.3681 -3.83189 -9.59717
upperback 1.7694 -2.63436 0.299776
thorax 14.0505 -1.91267 4.97366
lowerneck -1.30292 -8.35798 -0.456108
upperneck 15.2483 -11.362 5.11641
head 5.1308 -5.02004 1.112
rclavicle -4.37326e-015 -1.59028e-014
rhumerus -40.5122 -14.4377 -80.8463
rradius 40.8575
rwrist -9.6742
rhand -10.978 -53.7805
rfingers 7.12502
rthumb 15.0417 -83.2141
lclavicle -4.37326e-015 -1.59028e-014
lhumerus -31.3357 2.51944 75.7268
lradius 26.8259
lwrist -0.678932
lhand -21.7923 -13.4378
lfingers 7.12502
lthumb 4.60934 16.4921
rfemur -66.2293 -4.52654 19.4239
rtibia 89.811
rfoot -32.3369 -10.665
rtoes -25.8919
lfemur -23.1424 -10.6401 -15.1252
ltibia 22.94
lfoot -17.4382 10.1727
ltoes -40.4968
115
root -1.07357 16.2843 21.1207 -160.677 3.53292 185.831
lowerback -20.3024 -3.82762 -9.52831
upperback 1.82709 -2.66503 0.355437
thorax 14.0844 -1.93072 4.98821
lowerneck -1.07826 -8.48074 -0.186664
upperneck 15.1391 -11.4972 4.85531
head 5.0331 -5.09586 0.99707
rclavicle 1.70955e-014 0
rhumerus -40.6032 -14.9365 -80.371
rradius 40.5042
rwrist -10.3431
rhand -10.6028 -53.4127
rfingers 7.12502
rthumb 15.4031 -82.8189
lclavicle 1.70955e-014 0
lhumerus -31.5323 2.20448 75.7585
lradius 27.1918
lwrist -0.378265
lhand -21.8552 -13.4382
lfingers 7.12502
lthumb 4.5486 16.493
rfemur -66.8576 -4.79995 18.8331
rtibia 90.1141
rfoot -32.4677 -10.7432
rtoes -24.2504
lfemur -22.9783 -10.7432 -14.7687
ltibia 23.2736
lfoot -17.6622 10.234
ltoes -40.2658
116
root -1.05695 16.2797 21.0969 -160.848 3.37091 186.229
lowerback -20.0466 -3.77563 -9.35919
upperback 1.72814 -2.68369 0.434498
thorax 13.8135 -1.91798 4.98607
lowerneck -0.739135 -8.50865 -0.230071
upperneck 15.0399 -11.5199 4.9479
head 4.95432 -5.10843 1.04829
rclavicle 9.14409e-015 -4.77083e-015
rhumerus -40.9712 -15.1167 -80.121
rradius 40.3949
rwrist -10.344
rhand -10.5433 -53.0882
rfingers 7.12502
rthumb 15.4604 -82.4899
lclavicle 9.14409e-015 -4.77083e-015
lhumerus -31.9149 1.78247 75.8153
lradius 27.5562
lwrist -0.174451
lhand -22.1783 -13.1954
lfingers 7.12502
lthumb 4.23656 16.7423
rfemur -67.5552 -5.02681 18.3391
rtibia 90.105
rfoot -32.4443 -11.1106
rtoes -23.8512
lfemur -22.8774 -10.7798 -14.2871
ltibia 23.6699
lfoot -17.9339 10.3025
ltoes -40.9379
117
root -1.03836 16.2763 21.0733 -161.054 3.18274 186.606
lowerback -19.8114 -3.72156 -9.20387
upperback 1.71424 -2.6874 0.482463
thorax 13.6525 -1.90644 4.95798
lowerneck -0.810282 -8.51381 -0.301132
upperneck 15.2623 -11.5351 5.03715
head 5.04478 -5.09918 1.07817
rclavicle 5.56597e-015 -5.08889e-014
rhumerus -41.2157 -15.079 -80.1676
rradius 40.4364
rwrist -9.80094
rhand -10.7475 -52.5259
rfingers 7.12502
rthumb 15.2637 -81.9428
lclavicle 5.56597e-015 -5.08889e-014
lhumerus -31.9687 1.72685 75.7105
lradius 27.6767
lwrist -0.309098
lhand -22.0765 -12.652
lfingers 7.12502
lthumb 4.33494 17.2836
rfemur -68.1007 -5.38911 17.9236
rtibia 89.8378
rfoot -31.9484 -11.8342
rtoes -25.5446
lfemur -22.7677 -10.8089 -13.8314
ltibia 24.1787
lfoot -18.2637 10.3843
ltoes -41.4605
118
root -1.02217 16.2741 21.0454 -161.318 2.96537 186.873
lowerback -19.6546 -3.72718 -9.26199
upperback 1.7959 -2.71898 0.595857
thorax 13.6724 -1.93939 5.11249
lowerneck -1.0015 -8.65288 -0.270982
upperneck 15.4753 -11.7252 4.92721
head 5.14047 -5.18557 1.01725
rclavicle -2.26615e-014 -3.49861e-014
rhumerus -41.2212 -15.3948 -79.6598
rradius 40.5729
rwrist -11.2185
rhand -9.93966 -53.6912
rfingers 7.12502
rthumb 16.0418 -83.0471
lclavicle -2.26615e-014 -3.49861e-014
lhumerus -31.9515 1.72296 75.7818
lradius 27.9726
lwrist -0.203839
lhand -21.671 -11.601
lfingers 7.12502
lthumb 4.72641 18.3263
rfemur -68.4131 -5.80003 17.1933
rtibia 89.7214
rfoot -32.2606 -10.8382
rtoes -21.5848
lfemur -22.557 -10.8687 -13.5254
ltibia 24.5741
lfoot -18.5768 10.3352
ltoes -40.9731
